<svg width="181" height="122" viewBox="0 0 181 122" fill="none" xmlns="http://www.w3.org/2000/svg">
<path d="M19.5974 100.407C25.1731 107.111 36.0847 106.995 41.4377 107.736C91.9194 109.802 78.5748 98.8102 119.041 106.575C131.095 109.72 145.71 102.983 150.96 96.9649C158.834 87.9131 162 74.6691 162 63.0453C161.194 37.6752 152.387 26.087 148.084 23.4642C132.156 15.5542 111.406 19.0696 100.271 19.0696C88.4752 19.0696 74.0396 8.84431 64.9458 9.0018C51.1823 9.25048 41.6574 12.8374 33.7925 23.4642C28.818 30.2116 26.9304 39.7443 28.3363 47.7102C29.7421 55.6762 24.4333 63.2194 20.6189 70.373C17.7973 75.6698 15.1921 81.3314 15.0151 87.2085C14.848 92.754 16.0446 96.1343 19.5974 100.407Z" fill="#F5FCFC"/>
<path d="M149.749 94.6308H32.9727V24.3847C32.9727 22.5146 34.5034 21 36.3934 21H146.328C148.218 21 149.749 22.5146 149.749 24.3847V94.6308Z" fill="#CED5D8"/>
<path d="M144.037 26.457H39.125V94.6339H144.037V26.457Z" fill="#092E3B"/>
<path d="M154.722 102.998H28.4881C24.356 102.998 21 99.6846 21 95.5888V94.6289H162.21V95.5888C162.21 99.6846 158.854 102.998 154.722 102.998Z" fill="#9DABB1"/>
<path d="M115.487 62.9158V54.6526C115.487 53.8075 114.802 53.1224 113.957 53.1224H111.66C110.963 53.1224 110.359 52.6493 110.15 51.9843C109.753 50.7245 109.25 49.5121 108.631 48.3563C108.296 47.731 108.382 46.9534 108.883 46.4519L110.503 44.8318C111.101 44.2343 111.101 43.2654 110.503 42.6678L105.781 37.9458C105.184 37.3483 104.215 37.3483 103.617 37.9458L101.954 39.6094C101.454 40.1085 100.682 40.1956 100.056 39.8694C98.933 39.2842 97.7464 38.8115 96.5228 38.4423C95.8481 38.2388 95.365 37.6307 95.365 36.926V34.5302C95.365 33.6851 94.6799 33 93.8348 33H87.1018C86.2567 33 85.5716 33.6851 85.5716 34.5302V37.0025C85.5716 37.7072 85.0883 38.3148 84.4151 38.5234C83.2101 38.8967 82.053 39.3806 80.9611 39.9664C80.3343 40.3028 79.5538 40.2186 79.0508 39.7156L77.3193 37.9841C76.7217 37.3865 75.7528 37.3865 75.1552 37.9841L70.4333 42.706C69.8357 43.3036 69.8357 44.2725 70.4333 44.8701L72.1648 46.6016C72.6678 47.1046 72.7519 47.8851 72.4156 48.512C71.8298 49.6039 71.3459 50.7609 70.9725 51.966C70.764 52.6391 70.1564 53.1224 69.4517 53.1224H66.9794C66.1343 53.1224 65.4492 53.8075 65.4492 54.6526V61.3474C65.4492 62.1925 66.1343 62.8776 66.9794 62.8776H69.4081C70.1153 62.8776 70.7245 63.3641 70.9304 64.0406C71.3073 65.2788 71.795 66.4587 72.3757 67.5804C72.6959 68.1991 72.6034 68.9597 72.1108 69.4524L70.4333 71.1299C69.8357 71.7275 69.8357 72.6964 70.4333 73.294L75.1552 78.0159C75.7528 78.6135 76.7217 78.6135 77.3193 78.0159L78.9308 76.4044C79.4362 75.899 80.2213 75.8167 80.85 76.1568C81.983 76.7699 83.1836 77.2687 84.4335 77.6623C85.0985 77.8717 85.5716 78.4754 85.5716 79.1726V81.4698C85.5716 82.3149 86.2567 83 87.1018 83H93.7965C94.6417 83 95.3268 82.3149 95.3268 81.4698V79.2757C95.3268 78.5662 95.8164 77.9556 96.4965 77.7534C97.7765 77.3728 99.0066 76.8739 100.168 76.2566C100.795 75.9238 101.572 76.0091 102.074 76.5106L103.617 78.0542C104.215 78.6518 105.184 78.6518 105.781 78.0542L110.503 73.3322C111.101 72.7346 111.101 71.7658 110.503 71.1682L108.96 69.6246C108.458 69.1231 108.373 68.3456 108.706 67.7192C109.323 66.5574 109.822 65.3273 110.202 64.0473C110.405 63.3672 111.015 62.8776 111.725 62.8776H115.449C115.47 62.8776 115.487 62.8947 115.487 62.9158ZM90.5448 72.6327C82.5112 72.6327 76.0077 66.1293 76.0077 58.0956C76.0077 50.062 82.5112 43.5585 90.5448 43.5585C98.5785 43.5585 105.082 50.062 105.082 58.0956C105.082 66.1293 98.5785 72.6327 90.5448 72.6327Z" fill="#33C4BD"/>
<path opacity="0.5" fill-rule="evenodd" clip-rule="evenodd" d="M121.168 42.2179L119.003 48.0338L107.969 53.3896L106.632 50.6364L116.563 45.8163L118.3 41.1501L121.168 42.2179Z" fill="#33C4BD"/>
<path opacity="0.5" fill-rule="evenodd" clip-rule="evenodd" d="M64.0677 45.8151L62.3311 41.1501L59.4629 42.2179L61.6284 48.0349L72.7021 53.3906L74.0346 50.6354L64.0677 45.8151Z" fill="#33C4BD"/>
<path opacity="0.5" fill-rule="evenodd" clip-rule="evenodd" d="M121.168 42.2179L119.003 48.0338L107.969 53.3896L106.632 50.6364L116.563 45.8163L118.3 41.1501L121.168 42.2179Z" fill="#33C4BD"/>
<path opacity="0.5" fill-rule="evenodd" clip-rule="evenodd" d="M64.0677 45.8151L62.3311 41.1501L59.4629 42.2179L61.6284 48.0349L72.7021 53.3906L74.0346 50.6354L64.0677 45.8151Z" fill="#33C4BD"/>
<path opacity="0.5" fill-rule="evenodd" clip-rule="evenodd" d="M72.7021 63.9866L74.0346 66.7417L64.0677 71.5621L62.3311 76.227L59.4629 75.1593L61.6284 69.3422L72.7021 63.9866Z" fill="#33C4BD"/>
<path opacity="0.5" fill-rule="evenodd" clip-rule="evenodd" d="M116.563 71.5609L106.632 66.7408L107.969 63.9875L119.003 69.3434L121.168 75.1593L118.3 76.227L116.563 71.5609Z" fill="#33C4BD"/>
<path d="M60.1317 41.684C61.5684 41.684 62.733 40.5193 62.733 39.0826C62.733 37.6459 61.5684 36.4812 60.1317 36.4812C58.6949 36.4812 57.5303 37.6459 57.5303 39.0826C57.5303 40.5193 58.6949 41.684 60.1317 41.684Z" fill="white"/>
<path fill-rule="evenodd" clip-rule="evenodd" d="M60.1316 38.0114C59.54 38.0114 59.0604 38.4909 59.0604 39.0825C59.0604 39.6741 59.54 40.1537 60.1316 40.1537C60.7232 40.1537 61.2028 39.6741 61.2028 39.0825C61.2028 38.4909 60.7232 38.0114 60.1316 38.0114ZM56 39.0825C56 36.8007 57.8498 34.9509 60.1316 34.9509C62.4134 34.9509 64.2632 36.8007 64.2632 39.0825C64.2632 41.3643 62.4134 43.2141 60.1316 43.2141C57.8498 43.2141 56 41.3643 56 39.0825Z" fill="#33C4BD"/>
<path d="M120.537 41.684C121.974 41.684 123.139 40.5193 123.139 39.0826C123.139 37.6459 121.974 36.4812 120.537 36.4812C119.101 36.4812 117.936 37.6459 117.936 39.0826C117.936 40.5193 119.101 41.684 120.537 41.684Z" fill="white"/>
<path fill-rule="evenodd" clip-rule="evenodd" d="M120.537 38.0114C119.945 38.0114 119.466 38.4909 119.466 39.0825C119.466 39.6741 119.945 40.1537 120.537 40.1537C121.129 40.1537 121.608 39.6741 121.608 39.0825C121.608 38.4909 121.129 38.0114 120.537 38.0114ZM116.405 39.0825C116.405 36.8007 118.255 34.9509 120.537 34.9509C122.819 34.9509 124.669 36.8007 124.669 39.0825C124.669 41.3643 122.819 43.2141 120.537 43.2141C118.255 43.2141 116.405 41.3643 116.405 39.0825Z" fill="#33C4BD"/>
<path d="M60.1317 80.8959C61.5684 80.8959 62.733 79.7312 62.733 78.2945C62.733 76.8578 61.5684 75.6931 60.1317 75.6931C58.6949 75.6931 57.5303 76.8578 57.5303 78.2945C57.5303 79.7312 58.6949 80.8959 60.1317 80.8959Z" fill="white"/>
<path fill-rule="evenodd" clip-rule="evenodd" d="M60.1316 77.2234C59.54 77.2234 59.0604 77.703 59.0604 78.2946C59.0604 78.8861 59.54 79.3657 60.1316 79.3657C60.7232 79.3657 61.2028 78.8861 61.2028 78.2946C61.2028 77.703 60.7232 77.2234 60.1316 77.2234ZM56 78.2946C56 76.0127 57.8498 74.163 60.1316 74.163C62.4134 74.163 64.2632 76.0127 64.2632 78.2946C64.2632 80.5764 62.4134 82.4262 60.1316 82.4262C57.8498 82.4262 56 80.5764 56 78.2946Z" fill="#33C4BD"/>
<path d="M120.537 80.8959C121.974 80.8959 123.139 79.7312 123.139 78.2945C123.139 76.8578 121.974 75.6931 120.537 75.6931C119.101 75.6931 117.936 76.8578 117.936 78.2945C117.936 79.7312 119.101 80.8959 120.537 80.8959Z" fill="white"/>
<path fill-rule="evenodd" clip-rule="evenodd" d="M120.537 77.2234C119.945 77.2234 119.466 77.703 119.466 78.2946C119.466 78.8861 119.945 79.3657 120.537 79.3657C121.129 79.3657 121.608 78.8861 121.608 78.2946C121.608 77.703 121.129 77.2234 120.537 77.2234ZM116.405 78.2946C116.405 76.0127 118.255 74.163 120.537 74.163C122.819 74.163 124.669 76.0127 124.669 78.2946C124.669 80.5764 122.819 82.4262 120.537 82.4262C118.255 82.4262 116.405 80.5764 116.405 78.2946Z" fill="#33C4BD"/>
<path fill-rule="evenodd" clip-rule="evenodd" d="M96.0493 55.6781C96.2055 55.5219 96.2055 55.2686 96.0493 55.1124L94.8144 53.8775C94.6582 53.7213 94.4049 53.7213 94.2487 53.8775L89.1299 58.9963L86.7117 56.5781C86.5555 56.4219 86.3022 56.4219 86.146 56.5781L84.9111 57.8129C84.7549 57.9691 84.7549 58.2224 84.9111 58.3786L87.6072 61.0747C87.6088 61.0764 87.6105 61.0781 87.6122 61.0798L88.847 62.3147C89.0033 62.4709 89.2565 62.4709 89.4127 62.3147L96.0493 55.6781Z" fill="#FAFBFB"/>
</svg>
